{
    "asset" : {
        "generator" : "Khronos glTF Blender I/O v1.6.16",
        "version" : "2.0"
    },
    "scene" : 0,
    "scenes" : [
        {
            "name" : "Scene",
            "nodes" : [
                9
            ]
        }
    ],
    "nodes" : [
        {
            "mesh" : 0,
            "name" : "Head",
            "translation" : [
                0,
                10,
                0
            ]
        },
        {
            "mesh" : 1,
            "name" : "LowerLeftArm",
            "translation" : [
                0,
                -10,
                0
            ]
        },
        {
            "children" : [
                1
            ],
            "mesh" : 2,
            "name" : "UpperLeftArm",
            "translation" : [
                7.5,
                10,
                0
            ]
        },
        {
            "mesh" : 3,
            "name" : "LowerLeftLeg",
            "translation" : [
                0,
                -10,
                0
            ]
        },
        {
            "children" : [
                3
            ],
            "mesh" : 4,
            "name" : "UpperLeftLeg",
            "translation" : [
                2.5,
                -10,
                0
            ]
        },
        {
            "mesh" : 5,
            "name" : "LowerRightArm",
            "translation" : [
                0,
                -10,
                0
            ]
        },
        {
            "children" : [
                5
            ],
            "mesh" : 6,
            "name" : "UpperRightArm",
            "translation" : [
                -7.5,
                10,
                0
            ]
        },
        {
            "mesh" : 7,
            "name" : "LowerRightLeg",
            "translation" : [
                0,
                -10,
                0
            ]
        },
        {
            "children" : [
                7
            ],
            "mesh" : 8,
            "name" : "UpperRightLeg",
            "translation" : [
                -2.5,
                -10,
                0
            ]
        },
        {
            "children" : [
                0,
                2,
                4,
                6,
                8
            ],
            "mesh" : 9,
            "name" : "Body",
            "translation" : [
                0,
                30,
                0
            ]
        }
    ],
    "materials" : [
        {
            "doubleSided" : true,
            "name" : "Head",
            "pbrMetallicRoughness" : {
                "baseColorTexture" : {
                    "index" : 0
                },
                "metallicFactor" : 0,
                "roughnessFactor" : 0.5
            }
        },
        {
            "doubleSided" : true,
            "name" : "LeftLowerArm",
            "pbrMetallicRoughness" : {
                "baseColorTexture" : {
                    "index" : 1
                },
                "metallicFactor" : 0,
                "roughnessFactor" : 0.5
            }
        },
        {
            "doubleSided" : true,
            "name" : "LeftUpperArm",
            "pbrMetallicRoughness" : {
                "baseColorTexture" : {
                    "index" : 2
                },
                "metallicFactor" : 0,
                "roughnessFactor" : 0.5
            }
        },
        {
            "doubleSided" : true,
            "name" : "LeftLowerLeg",
            "pbrMetallicRoughness" : {
                "baseColorTexture" : {
                    "index" : 3
                },
                "metallicFactor" : 0,
                "roughnessFactor" : 0.5
            }
        },
        {
            "doubleSided" : true,
            "name" : "LeftUpperLeg",
            "pbrMetallicRoughness" : {
                "baseColorTexture" : {
                    "index" : 4
                },
                "metallicFactor" : 0,
                "roughnessFactor" : 0.5
            }
        },
        {
            "doubleSided" : true,
            "name" : "RightLowerArm",
            "pbrMetallicRoughness" : {
                "baseColorTexture" : {
                    "index" : 5
                },
                "metallicFactor" : 0,
                "roughnessFactor" : 0.5
            }
        },
        {
            "doubleSided" : true,
            "name" : "RightUpperArm",
            "pbrMetallicRoughness" : {
                "baseColorTexture" : {
                    "index" : 6
                },
                "metallicFactor" : 0,
                "roughnessFactor" : 0.5
            }
        },
        {
            "doubleSided" : true,
            "name" : "RightLowerLeg",
            "pbrMetallicRoughness" : {
                "baseColorTexture" : {
                    "index" : 7
                },
                "metallicFactor" : 0,
                "roughnessFactor" : 0.5
            }
        },
        {
            "doubleSided" : true,
            "name" : "RightUpperLeg",
            "pbrMetallicRoughness" : {
                "baseColorTexture" : {
                    "index" : 8
                },
                "metallicFactor" : 0,
                "roughnessFactor" : 0.5
            }
        },
        {
            "doubleSided" : true,
            "name" : "Body",
            "pbrMetallicRoughness" : {
                "baseColorTexture" : {
                    "index" : 9
                },
                "metallicFactor" : 0,
                "roughnessFactor" : 0.5
            }
        }
    ],
    "meshes" : [
        {
            "name" : "Cube",
            "primitives" : [
                {
                    "attributes" : {
                        "POSITION" : 0,
                        "NORMAL" : 1,
                        "TEXCOORD_0" : 2
                    },
                    "indices" : 3,
                    "material" : 0
                }
            ]
        },
        {
            "name" : "LowerLeftArm",
            "primitives" : [
                {
                    "attributes" : {
                        "POSITION" : 4,
                        "NORMAL" : 5,
                        "TEXCOORD_0" : 6
                    },
                    "indices" : 3,
                    "material" : 1
                }
            ]
        },
        {
            "name" : "UpperLeftArm",
            "primitives" : [
                {
                    "attributes" : {
                        "POSITION" : 7,
                        "NORMAL" : 8,
                        "TEXCOORD_0" : 9
                    },
                    "indices" : 3,
                    "material" : 2
                }
            ]
        },
        {
            "name" : "LowerLeftLeg",
            "primitives" : [
                {
                    "attributes" : {
                        "POSITION" : 10,
                        "NORMAL" : 11,
                        "TEXCOORD_0" : 12
                    },
                    "indices" : 3,
                    "material" : 3
                }
            ]
        },
        {
            "name" : "UpperLeftLeg",
            "primitives" : [
                {
                    "attributes" : {
                        "POSITION" : 13,
                        "NORMAL" : 14,
                        "TEXCOORD_0" : 15
                    },
                    "indices" : 3,
                    "material" : 4
                }
            ]
        },
        {
            "name" : "LowerRightArm",
            "primitives" : [
                {
                    "attributes" : {
                        "POSITION" : 16,
                        "NORMAL" : 17,
                        "TEXCOORD_0" : 18
                    },
                    "indices" : 3,
                    "material" : 5
                }
            ]
        },
        {
            "name" : "UpperRightArm",
            "primitives" : [
                {
                    "attributes" : {
                        "POSITION" : 19,
                        "NORMAL" : 20,
                        "TEXCOORD_0" : 21
                    },
                    "indices" : 3,
                    "material" : 6
                }
            ]
        },
        {
            "name" : "LowerRightLeg",
            "primitives" : [
                {
                    "attributes" : {
                        "POSITION" : 22,
                        "NORMAL" : 23,
                        "TEXCOORD_0" : 24
                    },
                    "indices" : 3,
                    "material" : 7
                }
            ]
        },
        {
            "name" : "UpperRightLeg",
            "primitives" : [
                {
                    "attributes" : {
                        "POSITION" : 25,
                        "NORMAL" : 26,
                        "TEXCOORD_0" : 27
                    },
                    "indices" : 3,
                    "material" : 8
                }
            ]
        },
        {
            "name" : "Body",
            "primitives" : [
                {
                    "attributes" : {
                        "POSITION" : 28,
                        "NORMAL" : 29,
                        "TEXCOORD_0" : 30
                    },
                    "indices" : 3,
                    "material" : 9
                }
            ]
        }
    ],
    "textures" : [
        {
            "sampler" : 0,
            "source" : 0
        },
        {
            "sampler" : 0,
            "source" : 1
        },
        {
            "sampler" : 0,
            "source" : 1
        },
        {
            "sampler" : 0,
            "source" : 2
        },
        {
            "sampler" : 0,
            "source" : 2
        },
        {
            "sampler" : 0,
            "source" : 1
        },
        {
            "sampler" : 0,
            "source" : 1
        },
        {
            "sampler" : 0,
            "source" : 2
        },
        {
            "sampler" : 0,
            "source" : 2
        },
        {
            "sampler" : 0,
            "source" : 3
        }
    ],
    "images" : [
        {
            "bufferView" : 4,
            "mimeType" : "image/png",
            "name" : "Face"
        },
        {
            "bufferView" : 8,
            "mimeType" : "image/png",
            "name" : "Arm.png"
        },
        {
            "bufferView" : 15,
            "mimeType" : "image/png",
            "name" : "Leg"
        },
        {
            "bufferView" : 34,
            "mimeType" : "image/png",
            "name" : "Body"
        }
    ],
    "accessors" : [
        {
            "bufferView" : 0,
            "componentType" : 5126,
            "count" : 24,
            "max" : [
                4,
                8.00381088256836,
                4
            ],
            "min" : [
                -4,
                0.002857208251953125,
                -4
            ],
            "type" : "VEC3"
        },
        {
            "bufferView" : 1,
            "componentType" : 5126,
            "count" : 24,
            "type" : "VEC3"
        },
        {
            "bufferView" : 2,
            "componentType" : 5126,
            "count" : 24,
            "type" : "VEC2"
        },
        {
            "bufferView" : 3,
            "componentType" : 5123,
            "count" : 36,
            "type" : "SCALAR"
        },
        {
            "bufferView" : 5,
            "componentType" : 5126,
            "count" : 24,
            "max" : [
                2.4999990463256836,
                -0.0017299652099609375,
                2.499999761581421
            ],
            "min" : [
                -2.4999990463256836,
                -10,
                -2.499999761581421
            ],
            "type" : "VEC3"
        },
        {
            "bufferView" : 6,
            "componentType" : 5126,
            "count" : 24,
            "type" : "VEC3"
        },
        {
            "bufferView" : 7,
            "componentType" : 5126,
            "count" : 24,
            "type" : "VEC2"
        },
        {
            "bufferView" : 9,
            "componentType" : 5126,
            "count" : 24,
            "max" : [
                2.5,
                -0.00177764892578125,
                2.5
            ],
            "min" : [
                -2.5,
                -10,
                -2.5
            ],
            "type" : "VEC3"
        },
        {
            "bufferView" : 10,
            "componentType" : 5126,
            "count" : 24,
            "type" : "VEC3"
        },
        {
            "bufferView" : 11,
            "componentType" : 5126,
            "count" : 24,
            "type" : "VEC2"
        },
        {
            "bufferView" : 12,
            "componentType" : 5126,
            "count" : 24,
            "max" : [
                2.5,
                0,
                2.5
            ],
            "min" : [
                -2.499999761581421,
                -10,
                -2.5
            ],
            "type" : "VEC3"
        },
        {
            "bufferView" : 13,
            "componentType" : 5126,
            "count" : 24,
            "type" : "VEC3"
        },
        {
            "bufferView" : 14,
            "componentType" : 5126,
            "count" : 24,
            "type" : "VEC2"
        },
        {
            "bufferView" : 16,
            "componentType" : 5126,
            "count" : 24,
            "max" : [
                2.5,
                -0.00177764892578125,
                2.5
            ],
            "min" : [
                -2.5,
                -10,
                -2.5
            ],
            "type" : "VEC3"
        },
        {
            "bufferView" : 17,
            "componentType" : 5126,
            "count" : 24,
            "type" : "VEC3"
        },
        {
            "bufferView" : 18,
            "componentType" : 5126,
            "count" : 24,
            "type" : "VEC2"
        },
        {
            "bufferView" : 19,
            "componentType" : 5126,
            "count" : 24,
            "max" : [
                2.5,
                -0.000888824462890625,
                2.5
            ],
            "min" : [
                -2.5,
                -10.00088882446289,
                -2.5
            ],
            "type" : "VEC3"
        },
        {
            "bufferView" : 20,
            "componentType" : 5126,
            "count" : 24,
            "type" : "VEC3"
        },
        {
            "bufferView" : 21,
            "componentType" : 5126,
            "count" : 24,
            "type" : "VEC2"
        },
        {
            "bufferView" : 22,
            "componentType" : 5126,
            "count" : 24,
            "max" : [
                2.5,
                -0.000888824462890625,
                2.5
            ],
            "min" : [
                -2.5,
                -10.00088882446289,
                -2.5
            ],
            "type" : "VEC3"
        },
        {
            "bufferView" : 23,
            "componentType" : 5126,
            "count" : 24,
            "type" : "VEC3"
        },
        {
            "bufferView" : 24,
            "componentType" : 5126,
            "count" : 24,
            "type" : "VEC2"
        },
        {
            "bufferView" : 25,
            "componentType" : 5126,
            "count" : 24,
            "max" : [
                2.500000238418579,
                -0.000888824462890625,
                2.5
            ],
            "min" : [
                -2.499999523162842,
                -10.00088882446289,
                -2.5
            ],
            "type" : "VEC3"
        },
        {
            "bufferView" : 26,
            "componentType" : 5126,
            "count" : 24,
            "type" : "VEC3"
        },
        {
            "bufferView" : 27,
            "componentType" : 5126,
            "count" : 24,
            "type" : "VEC2"
        },
        {
            "bufferView" : 28,
            "componentType" : 5126,
            "count" : 24,
            "max" : [
                2.5,
                -0.00177764892578125,
                2.5
            ],
            "min" : [
                -2.5,
                -10.001777648925781,
                -2.5
            ],
            "type" : "VEC3"
        },
        {
            "bufferView" : 29,
            "componentType" : 5126,
            "count" : 24,
            "type" : "VEC3"
        },
        {
            "bufferView" : 30,
            "componentType" : 5126,
            "count" : 24,
            "type" : "VEC2"
        },
        {
            "bufferView" : 31,
            "componentType" : 5126,
            "count" : 24,
            "max" : [
                5,
                10.00088882446289,
                2.5
            ],
            "min" : [
                -5,
                -10.00088882446289,
                -2.5
            ],
            "type" : "VEC3"
        },
        {
            "bufferView" : 32,
            "componentType" : 5126,
            "count" : 24,
            "type" : "VEC3"
        },
        {
            "bufferView" : 33,
            "componentType" : 5126,
            "count" : 24,
            "type" : "VEC2"
        }
    ],
    "bufferViews" : [
        {
            "buffer" : 0,
            "byteLength" : 288,
            "byteOffset" : 0
        },
        {
            "buffer" : 0,
            "byteLength" : 288,
            "byteOffset" : 288
        },
        {
            "buffer" : 0,
            "byteLength" : 192,
            "byteOffset" : 576
        },
        {
            "buffer" : 0,
            "byteLength" : 72,
            "byteOffset" : 768
        },
        {
            "buffer" : 0,
            "byteLength" : 3030,
            "byteOffset" : 840
        },
        {
            "buffer" : 0,
            "byteLength" : 288,
            "byteOffset" : 3872
        },
        {
            "buffer" : 0,
            "byteLength" : 288,
            "byteOffset" : 4160
        },
        {
            "buffer" : 0,
            "byteLength" : 192,
            "byteOffset" : 4448
        },
        {
            "buffer" : 0,
            "byteLength" : 3318,
            "byteOffset" : 4640
        },
        {
            "buffer" : 0,
            "byteLength" : 288,
            "byteOffset" : 7960
        },
        {
            "buffer" : 0,
            "byteLength" : 288,
            "byteOffset" : 8248
        },
        {
            "buffer" : 0,
            "byteLength" : 192,
            "byteOffset" : 8536
        },
        {
            "buffer" : 0,
            "byteLength" : 288,
            "byteOffset" : 8728
        },
        {
            "buffer" : 0,
            "byteLength" : 288,
            "byteOffset" : 9016
        },
        {
            "buffer" : 0,
            "byteLength" : 192,
            "byteOffset" : 9304
        },
        {
            "buffer" : 0,
            "byteLength" : 3231,
            "byteOffset" : 9496
        },
        {
            "buffer" : 0,
            "byteLength" : 288,
            "byteOffset" : 12728
        },
        {
            "buffer" : 0,
            "byteLength" : 288,
            "byteOffset" : 13016
        },
        {
            "buffer" : 0,
            "byteLength" : 192,
            "byteOffset" : 13304
        },
        {
            "buffer" : 0,
            "byteLength" : 288,
            "byteOffset" : 13496
        },
        {
            "buffer" : 0,
            "byteLength" : 288,
            "byteOffset" : 13784
        },
        {
            "buffer" : 0,
            "byteLength" : 192,
            "byteOffset" : 14072
        },
        {
            "buffer" : 0,
            "byteLength" : 288,
            "byteOffset" : 14264
        },
        {
            "buffer" : 0,
            "byteLength" : 288,
            "byteOffset" : 14552
        },
        {
            "buffer" : 0,
            "byteLength" : 192,
            "byteOffset" : 14840
        },
        {
            "buffer" : 0,
            "byteLength" : 288,
            "byteOffset" : 15032
        },
        {
            "buffer" : 0,
            "byteLength" : 288,
            "byteOffset" : 15320
        },
        {
            "buffer" : 0,
            "byteLength" : 192,
            "byteOffset" : 15608
        },
        {
            "buffer" : 0,
            "byteLength" : 288,
            "byteOffset" : 15800
        },
        {
            "buffer" : 0,
            "byteLength" : 288,
            "byteOffset" : 16088
        },
        {
            "buffer" : 0,
            "byteLength" : 192,
            "byteOffset" : 16376
        },
        {
            "buffer" : 0,
            "byteLength" : 288,
            "byteOffset" : 16568
        },
        {
            "buffer" : 0,
            "byteLength" : 288,
            "byteOffset" : 16856
        },
        {
            "buffer" : 0,
            "byteLength" : 192,
            "byteOffset" : 17144
        },
        {
            "buffer" : 0,
            "byteLength" : 2665,
            "byteOffset" : 17336
        }
    ],
    "samplers" : [
        {
            "magFilter" : 9728,
            "minFilter" : 9984
        }
    ],
    "buffers" : [
        {
            "byteLength" : 20004,
            "uri" : "data:application/octet-stream;base64,"
        }
    ]
}
